<?xml version="1.0" standalone="no"?><!DOCTYPE svg PUBLIC "-//W3C//DTD SVG 1.1//EN" "http://www.w3.org/Graphics/SVG/1.1/DTD/svg11.dtd"><svg class="bench" width="960" height="500" version="1.1" xmlns="http://www.w3.org/2000/svg" xmlns:xlink="http://www.w3.org/1999/xlink"><defs xmlns="http://www.w3.org/1999/xhtml"><style type="text/css"><![CDATA[
:root { --annotation-color: #E8336D; font-family: pragmatapro, Helvetica, sans-serif; }
.line { fill: none; stroke-width: 1.5; opacity: 0.7; }
.ring { stroke-width: 1; fill: none; r: 4px; opacity: 0.23; }
.dot { r: 1.5px; opacity: 0.77; }
.cats circle.ring { stroke: none; }
.cats circle.dot { fill: white; }
.cats path { stroke: #ff79c6; }
.iota circle.ring { stroke: none; }
.iota circle.dot { fill: white; }
.iota path { stroke: #f1fa8c; }
path.domain { stroke: white; }
text { fill: white; }

.annotation path {
  stroke: var(--annotation-color);
  fill: none;
}

.annotation text,
.annotation .annotation-connector .connector-dot,
.annotation path.connector-arrow,
.annotation.callout.rect path.subject{
  fill: var(--annotation-color);
}

.annotation-note-title {
  font-weight: bold;
}

.annotation-note-bg {
  fill: rgba(0, 0, 0, 0);;
}

.annotation.callout.rect path.subject{
  fill-opacity: .1;
}

.annotation.badge path.subject-pointer, .annotation.badge path.subject {
  fill: var(--annotation-color);
  stroke-width: 3px;
  stroke-linecap: round;
}

.annotation.badge path.subject-ring {
  fill: white;
  stroke-width: 3px;
}

.annotation.badge .badge-text {
  fill: white;
  font-size: .7em;
}

/* Handling edit mode styles */
.editable .annotation-subject, .editable .annotation-note {
  cursor: move;
}

circle.handle {
  stroke-dasharray: 5;
  stroke: var(--annotation-color);
  fill: rgba(255, 255, 255, .2);
  cursor: move;

  stroke-opacity: .4;
}]]></style></defs><g transform="translate(60,20)"><g class="iota"><g transform="translate(22,43)"><circle class="ring"/><circle class="dot"/></g><g transform="translate(44,41)"><circle class="ring"/><circle class="dot"/></g><g transform="translate(66,41)"><circle class="ring"/><circle class="dot"/></g><g transform="translate(88,43)"><circle class="ring"/><circle class="dot"/></g><g transform="translate(110,43)"><circle class="ring"/><circle class="dot"/></g><g transform="translate(132,44)"><circle class="ring"/><circle class="dot"/></g><g transform="translate(154,40)"><circle class="ring"/><circle class="dot"/></g><g transform="translate(176,40)"><circle class="ring"/><circle class="dot"/></g><g transform="translate(198,42)"><circle class="ring"/><circle class="dot"/></g><g transform="translate(220,40)"><circle class="ring"/><circle class="dot"/></g><g transform="translate(242,44)"><circle class="ring"/><circle class="dot"/></g><g transform="translate(264,46)"><circle class="ring"/><circle class="dot"/></g><g transform="translate(286,43)"><circle class="ring"/><circle class="dot"/></g><g transform="translate(308,42)"><circle class="ring"/><circle class="dot"/></g><g transform="translate(330,45)"><circle class="ring"/><circle class="dot"/></g><g transform="translate(352,45)"><circle class="ring"/><circle class="dot"/></g><g transform="translate(374,43)"><circle class="ring"/><circle class="dot"/></g><g transform="translate(396,47)"><circle class="ring"/><circle class="dot"/></g><g transform="translate(418,46)"><circle class="ring"/><circle class="dot"/></g><g transform="translate(440,44)"><circle class="ring"/><circle class="dot"/></g><g transform="translate(462,47)"><circle class="ring"/><circle class="dot"/></g><g transform="translate(484,42)"><circle class="ring"/><circle class="dot"/></g><g transform="translate(506,44)"><circle class="ring"/><circle class="dot"/></g><g transform="translate(528,42)"><circle class="ring"/><circle class="dot"/></g><g transform="translate(550,45)"><circle class="ring"/><circle class="dot"/></g><g transform="translate(572,44)"><circle class="ring"/><circle class="dot"/></g><g transform="translate(594,46)"><circle class="ring"/><circle class="dot"/></g><g transform="translate(616,44)"><circle class="ring"/><circle class="dot"/></g><g transform="translate(638,47)"><circle class="ring"/><circle class="dot"/></g><g transform="translate(660,46)"><circle class="ring"/><circle class="dot"/></g><g transform="translate(682,44)"><circle class="ring"/><circle class="dot"/></g><g transform="translate(704,46)"><circle class="ring"/><circle class="dot"/></g><g transform="translate(726,44)"><circle class="ring"/><circle class="dot"/></g><g transform="translate(748,46)"><circle class="ring"/><circle class="dot"/></g><g transform="translate(770,44)"><circle class="ring"/><circle class="dot"/></g><g transform="translate(792,42)"><circle class="ring"/><circle class="dot"/></g><g transform="translate(814,46)"><circle class="ring"/><circle class="dot"/></g><g transform="translate(836,41)"><circle class="ring"/><circle class="dot"/></g><g transform="translate(858,43)"><circle class="ring"/><circle class="dot"/></g><g transform="translate(880,45)"><circle class="ring"/><circle class="dot"/></g><path class="line" d="M22,43L25.666666666666668,42.666666666666664C29.333333333333332,42.333333333333336,36.666666666666664,41.666666666666664,44,41.333333333333336C51.333333333333336,41,58.666666666666664,41,66,41.333333333333336C73.33333333333333,41.666666666666664,80.66666666666667,42.333333333333336,88,42.666666666666664C95.33333333333333,43,102.66666666666667,43,110,43.166666666666664C117.33333333333333,43.333333333333336,124.66666666666667,43.666666666666664,132,43.166666666666664C139.33333333333334,42.666666666666664,146.66666666666666,41.333333333333336,154,40.666666666666664C161.33333333333334,40,168.66666666666666,40,176,40.333333333333336C183.33333333333334,40.666666666666664,190.66666666666666,41.333333333333336,198,41.333333333333336C205.33333333333334,41.333333333333336,212.66666666666666,40.666666666666664,220,41C227.33333333333334,41.333333333333336,234.66666666666666,42.666666666666664,242,43.666666666666664C249.33333333333334,44.666666666666664,256.6666666666667,45.333333333333336,264,45.166666666666664C271.3333333333333,45,278.6666666666667,44,286,43.333333333333336C293.3333333333333,42.666666666666664,300.6666666666667,42.333333333333336,308,42.666666666666664C315.3333333333333,43,322.6666666666667,44,330,44.5C337.3333333333333,45,344.6666666666667,45,352,44.666666666666664C359.3333333333333,44.333333333333336,366.6666666666667,43.666666666666664,374,44C381.3333333333333,44.333333333333336,388.6666666666667,45.666666666666664,396,46.166666666666664C403.3333333333333,46.666666666666664,410.6666666666667,46.333333333333336,418,45.833333333333336C425.3333333333333,45.333333333333336,432.6666666666667,44.666666666666664,440,44.833333333333336C447.3333333333333,45,454.6666666666667,46,462,45.666666666666664C469.3333333333333,45.333333333333336,476.6666666666667,43.666666666666664,484,43.166666666666664C491.3333333333333,42.666666666666664,498.6666666666667,43.333333333333336,506,43.333333333333336C513.3333333333334,43.333333333333336,520.6666666666666,42.666666666666664,528,42.833333333333336C535.3333333333334,43,542.6666666666666,44,550,44.333333333333336C557.3333333333334,44.666666666666664,564.6666666666666,44.333333333333336,572,44.5C579.3333333333334,44.666666666666664,586.6666666666666,45.333333333333336,594,45.333333333333336C601.3333333333334,45.333333333333336,608.6666666666666,44.666666666666664,616,44.833333333333336C623.3333333333334,45,630.6666666666666,46,638,46.333333333333336C645.3333333333334,46.666666666666664,652.6666666666666,46.333333333333336,660,45.833333333333336C667.3333333333334,45.333333333333336,674.6666666666666,44.666666666666664,682,44.666666666666664C689.3333333333334,44.666666666666664,696.6666666666666,45.333333333333336,704,45.333333333333336C711.3333333333334,45.333333333333336,718.6666666666666,44.666666666666664,726,44.666666666666664C733.3333333333334,44.666666666666664,740.6666666666666,45.333333333333336,748,45.333333333333336C755.3333333333334,45.333333333333336,762.6666666666666,44.666666666666664,770,44C777.3333333333334,43.333333333333336,784.6666666666666,42.666666666666664,792,43C799.3333333333334,43.333333333333336,806.6666666666666,44.666666666666664,814,44.5C821.3333333333334,44.333333333333336,828.6666666666666,42.666666666666664,836,42.166666666666664C843.3333333333334,41.666666666666664,850.6666666666666,42.333333333333336,858,43C865.3333333333334,43.666666666666664,872.6666666666666,44.333333333333336,876.3333333333334,44.666666666666664L880,45"/></g><g class="cats"><g transform="translate(22,41)"><circle class="ring"/><circle class="dot"/></g><g transform="translate(44,64)"><circle class="ring"/><circle class="dot"/></g><g transform="translate(66,88)"><circle class="ring"/><circle class="dot"/></g><g transform="translate(88,95)"><circle class="ring"/><circle class="dot"/></g><g transform="translate(110,118)"><circle class="ring"/><circle class="dot"/></g><g transform="translate(132,134)"><circle class="ring"/><circle class="dot"/></g><g transform="translate(154,145)"><circle class="ring"/><circle class="dot"/></g><g transform="translate(176,164)"><circle class="ring"/><circle class="dot"/></g><g transform="translate(198,163)"><circle class="ring"/><circle class="dot"/></g><g transform="translate(220,179)"><circle class="ring"/><circle class="dot"/></g><g transform="translate(242,189)"><circle class="ring"/><circle class="dot"/></g><g transform="translate(264,201)"><circle class="ring"/><circle class="dot"/></g><g transform="translate(286,209)"><circle class="ring"/><circle class="dot"/></g><g transform="translate(308,217)"><circle class="ring"/><circle class="dot"/></g><g transform="translate(330,227)"><circle class="ring"/><circle class="dot"/></g><g transform="translate(352,230)"><circle class="ring"/><circle class="dot"/></g><g transform="translate(374,236)"><circle class="ring"/><circle class="dot"/></g><g transform="translate(396,246)"><circle class="ring"/><circle class="dot"/></g><g transform="translate(418,247)"><circle class="ring"/><circle class="dot"/></g><g transform="translate(440,253)"><circle class="ring"/><circle class="dot"/></g><g transform="translate(462,261)"><circle class="ring"/><circle class="dot"/></g><g transform="translate(484,262)"><circle class="ring"/><circle class="dot"/></g><g transform="translate(506,271)"><circle class="ring"/><circle class="dot"/></g><g transform="translate(528,271)"><circle class="ring"/><circle class="dot"/></g><g transform="translate(550,279)"><circle class="ring"/><circle class="dot"/></g><g transform="translate(572,282)"><circle class="ring"/><circle class="dot"/></g><g transform="translate(594,285)"><circle class="ring"/><circle class="dot"/></g><g transform="translate(616,291)"><circle class="ring"/><circle class="dot"/></g><g transform="translate(638,292)"><circle class="ring"/><circle class="dot"/></g><g transform="translate(660,295)"><circle class="ring"/><circle class="dot"/></g><g transform="translate(682,297)"><circle class="ring"/><circle class="dot"/></g><g transform="translate(704,301)"><circle class="ring"/><circle class="dot"/></g><g transform="translate(726,303)"><circle class="ring"/><circle class="dot"/></g><g transform="translate(748,303)"><circle class="ring"/><circle class="dot"/></g><g transform="translate(770,307)"><circle class="ring"/><circle class="dot"/></g><g transform="translate(792,311)"><circle class="ring"/><circle class="dot"/></g><g transform="translate(814,312)"><circle class="ring"/><circle class="dot"/></g><g transform="translate(836,314)"><circle class="ring"/><circle class="dot"/></g><g transform="translate(858,316)"><circle class="ring"/><circle class="dot"/></g><g transform="translate(880,319)"><circle class="ring"/><circle class="dot"/></g><path class="line" d="M22,41L25.666666666666668,44.833333333333336C29.333333333333332,48.666666666666664,36.666666666666664,56.333333333333336,44,64.16666666666667C51.333333333333336,72,58.666666666666664,80,66,85.16666666666667C73.33333333333333,90.33333333333333,80.66666666666667,92.66666666666667,88,97.66666666666667C95.33333333333333,102.66666666666667,102.66666666666667,110.33333333333333,110,116.83333333333333C117.33333333333333,123.33333333333333,124.66666666666667,128.66666666666666,132,133.16666666666666C139.33333333333334,137.66666666666666,146.66666666666666,141.33333333333334,154,146.33333333333334C161.33333333333334,151.33333333333334,168.66666666666666,157.66666666666666,176,160.66666666666666C183.33333333333334,163.66666666666666,190.66666666666666,163.33333333333334,198,165.83333333333334C205.33333333333334,168.33333333333334,212.66666666666666,173.66666666666666,220,178C227.33333333333334,182.33333333333334,234.66666666666666,185.66666666666666,242,189.33333333333334C249.33333333333334,193,256.6666666666667,197,264,200.33333333333334C271.3333333333333,203.66666666666666,278.6666666666667,206.33333333333334,286,209C293.3333333333333,211.66666666666666,300.6666666666667,214.33333333333334,308,217.33333333333334C315.3333333333333,220.33333333333334,322.6666666666667,223.66666666666666,330,225.83333333333334C337.3333333333333,228,344.6666666666667,229,352,230.5C359.3333333333333,232,366.6666666666667,234,374,236.66666666666666C381.3333333333333,239.33333333333334,388.6666666666667,242.66666666666666,396,244.5C403.3333333333333,246.33333333333334,410.6666666666667,246.66666666666666,418,247.83333333333334C425.3333333333333,249,432.6666666666667,251,440,253.33333333333334C447.3333333333333,255.66666666666666,454.6666666666667,258.3333333333333,462,259.8333333333333C469.3333333333333,261.3333333333333,476.6666666666667,261.6666666666667,484,263.3333333333333C491.3333333333333,265,498.6666666666667,268,506,269.5C513.3333333333334,271,520.6666666666666,271,528,272.3333333333333C535.3333333333334,273.6666666666667,542.6666666666666,276.3333333333333,550,278.1666666666667C557.3333333333334,280,564.6666666666666,281,572,282C579.3333333333334,283,586.6666666666666,284,594,285.5C601.3333333333334,287,608.6666666666666,289,616,290.1666666666667C623.3333333333334,291.3333333333333,630.6666666666666,291.6666666666667,638,292.3333333333333C645.3333333333334,293,652.6666666666666,294,660,294.8333333333333C667.3333333333334,295.6666666666667,674.6666666666666,296.3333333333333,682,297.3333333333333C689.3333333333334,298.3333333333333,696.6666666666666,299.6666666666667,704,300.6666666666667C711.3333333333334,301.6666666666667,718.6666666666666,302.3333333333333,726,302.6666666666667C733.3333333333334,303,740.6666666666666,303,748,303.6666666666667C755.3333333333334,304.3333333333333,762.6666666666666,305.6666666666667,770,307C777.3333333333334,308.3333333333333,784.6666666666666,309.6666666666667,792,310.5C799.3333333333334,311.3333333333333,806.6666666666666,311.6666666666667,814,312.1666666666667C821.3333333333334,312.6666666666667,828.6666666666666,313.3333333333333,836,314C843.3333333333334,314.6666666666667,850.6666666666666,315.3333333333333,858,316.1666666666667C865.3333333333334,317,872.6666666666666,318,876.3333333333334,318.5L880,319"/></g><g class="axis axis--x" transform="translate(0,435)" fill="none" font-size="10" font-family="sans-serif" text-anchor="middle"><path class="domain" stroke="#000" d="M0.5,6V0.5H880.5V6"/><g class="tick" opacity="1" transform="translate(0,0)"><line stroke="#000" y2="6" x1="0.5" x2="0.5"/><text fill="#000" y="9" x="0.5" dy="0.71em">0</text></g><g class="tick" opacity="1" transform="translate(110,0)"><line stroke="#000" y2="6" x1="0.5" x2="0.5"/><text fill="#000" y="9" x="0.5" dy="0.71em">5</text></g><g class="tick" opacity="1" transform="translate(220,0)"><line stroke="#000" y2="6" x1="0.5" x2="0.5"/><text fill="#000" y="9" x="0.5" dy="0.71em">10</text></g><g class="tick" opacity="1" transform="translate(330,0)"><line stroke="#000" y2="6" x1="0.5" x2="0.5"/><text fill="#000" y="9" x="0.5" dy="0.71em">15</text></g><g class="tick" opacity="1" transform="translate(440,0)"><line stroke="#000" y2="6" x1="0.5" x2="0.5"/><text fill="#000" y="9" x="0.5" dy="0.71em">20</text></g><g class="tick" opacity="1" transform="translate(550,0)"><line stroke="#000" y2="6" x1="0.5" x2="0.5"/><text fill="#000" y="9" x="0.5" dy="0.71em">25</text></g><g class="tick" opacity="1" transform="translate(660,0)"><line stroke="#000" y2="6" x1="0.5" x2="0.5"/><text fill="#000" y="9" x="0.5" dy="0.71em">30</text></g><g class="tick" opacity="1" transform="translate(770,0)"><line stroke="#000" y2="6" x1="0.5" x2="0.5"/><text fill="#000" y="9" x="0.5" dy="0.71em">35</text></g><g class="tick" opacity="1" transform="translate(880,0)"><line stroke="#000" y2="6" x1="0.5" x2="0.5"/><text fill="#000" y="9" x="0.5" dy="0.71em">40</text></g></g><g class="axis axis--y" fill="none" font-size="10" font-family="sans-serif" text-anchor="end"><path class="domain" stroke="#000" d="M-6,435.5H0.5V0.5H-6"/><g class="tick" opacity="1" transform="translate(0,435)"><line stroke="#000" x2="-6" y1="0.5" y2="0.5"/><text fill="#000" x="-9" y="0.5" dy="0.32em">0</text></g><g class="tick" opacity="1" transform="translate(0,403)"><line stroke="#000" x2="-6" y1="0.5" y2="0.5"/><text fill="#000" x="-9" y="0.5" dy="0.32em">500</text></g><g class="tick" opacity="1" transform="translate(0,371)"><line stroke="#000" x2="-6" y1="0.5" y2="0.5"/><text fill="#000" x="-9" y="0.5" dy="0.32em">1000</text></g><g class="tick" opacity="1" transform="translate(0,338)"><line stroke="#000" x2="-6" y1="0.5" y2="0.5"/><text fill="#000" x="-9" y="0.5" dy="0.32em">1500</text></g><g class="tick" opacity="1" transform="translate(0,306)"><line stroke="#000" x2="-6" y1="0.5" y2="0.5"/><text fill="#000" x="-9" y="0.5" dy="0.32em">2000</text></g><g class="tick" opacity="1" transform="translate(0,274)"><line stroke="#000" x2="-6" y1="0.5" y2="0.5"/><text fill="#000" x="-9" y="0.5" dy="0.32em">2500</text></g><g class="tick" opacity="1" transform="translate(0,242)"><line stroke="#000" x2="-6" y1="0.5" y2="0.5"/><text fill="#000" x="-9" y="0.5" dy="0.32em">3000</text></g><g class="tick" opacity="1" transform="translate(0,210)"><line stroke="#000" x2="-6" y1="0.5" y2="0.5"/><text fill="#000" x="-9" y="0.5" dy="0.32em">3500</text></g><g class="tick" opacity="1" transform="translate(0,177)"><line stroke="#000" x2="-6" y1="0.5" y2="0.5"/><text fill="#000" x="-9" y="0.5" dy="0.32em">4000</text></g><g class="tick" opacity="1" transform="translate(0,145)"><line stroke="#000" x2="-6" y1="0.5" y2="0.5"/><text fill="#000" x="-9" y="0.5" dy="0.32em">4500</text></g><g class="tick" opacity="1" transform="translate(0,113)"><line stroke="#000" x2="-6" y1="0.5" y2="0.5"/><text fill="#000" x="-9" y="0.5" dy="0.32em">5000</text></g><g class="tick" opacity="1" transform="translate(0,81)"><line stroke="#000" x2="-6" y1="0.5" y2="0.5"/><text fill="#000" x="-9" y="0.5" dy="0.32em">5500</text></g><g class="tick" opacity="1" transform="translate(0,49)"><line stroke="#000" x2="-6" y1="0.5" y2="0.5"/><text fill="#000" x="-9" y="0.5" dy="0.32em">6000</text></g><g class="tick" opacity="1" transform="translate(0,17)"><line stroke="#000" x2="-6" y1="0.5" y2="0.5"/><text fill="#000" x="-9" y="0.5" dy="0.32em">6500</text></g><text transform="rotate(-90)" y="6" dy="0.71em" text-anchor="end">score</text></g><g><g class="annotations"><g class="annotation callout circle  " transform="translate(396, 246)"><g class="annotation-connector"><path class="connector" d="M-17.677669529663685,17.677669529663685L-60,60L-100,60"/></g><g class="annotation-subject"><path class="subject" d="M1.2246467991473533e-15,-20A20,20,0,1,1,-1.2246467991473533e-15,20A20,20,0,1,1,1.2246467991473533e-15,-20Z"/></g><g class="annotation-note" transform="translate(-100, 60)"><g class="annotation-note-content" transform="translate(-100.5, 3)"><rect class="annotation-note-bg" width="100.5" height="58.053125"/><text class="annotation-note-label" dx="0" y="20.35"><tspan x="0" dy="0.8em">cats overhead</tspan><tspan x="0" dy="1.2em">doubles</tspan></text><text class="annotation-note-title"><tspan x="0" dy="0.8em">17 algebras</tspan></text></g><path class="note-line" d="M-100.5,0L0,0"/></g></g></g></g><g transform="translate(0, 13)"><g class="annotations"><g class="annotation label  " transform="translate(572, 44)"><g class="annotation-connector"><path class="connector" d="M0,0L100,60"/></g><g class="annotation-subject"/><g class="annotation-note" transform="translate(100, 60)"><g class="annotation-note-content" transform="translate(-45.359375, 3)"><rect class="annotation-note-bg" width="90.71875" height="37.6875"/><text class="annotation-note-label" dx="0" y="0"><tspan x="0" dy="0.8em">constant iota</tspan><tspan x="0" dy="1.2em">overhead</tspan></text><text class="annotation-note-title"/></g></g></g></g></g></g><text x="440" y="495" style="text-anchor: middle;">number of algebras</text><text transform="rotate(-90)" y="0" x="-217.5" dy="1em" style="text-anchor: middle;">score (1000 ops/s)</text></svg>
